<?xml version="1.0" encoding="utf-8" standalone="no"?>
<!DOCTYPE svg PUBLIC "-//W3C//DTD SVG 1.1//EN"
  "http://www.w3.org/Graphics/SVG/1.1/DTD/svg11.dtd">
<!-- Created with matplotlib (http://matplotlib.org/) -->
<svg height="432pt" version="1.1" viewBox="0 0 576 432" width="576pt" xmlns="http://www.w3.org/2000/svg" xmlns:xlink="http://www.w3.org/1999/xlink">
 <defs>
  <style type="text/css">
*{stroke-linecap:butt;stroke-linejoin:round;}
  </style>
 </defs>
 <g id="figure_1">
  <g id="patch_1">
   <path d="
M0 432
L576 432
L576 0
L0 0
z
"/>
  </g>
  <g id="axes_1">
   <g id="patch_2">
    <path d="
M72 388.8
L518.4 388.8
L518.4 43.2
L72 43.2
z
"/>
   </g>
   <g id="line2d_1">
    <path clip-path="url(#p7ff5b81e1d)" d="
M72 388.8
L72.0011 -1
M101.639 -1
L104.182 118.175
L106.522 206.639
L107.722 244.918
L108.943 278.857
L110.185 310.128
L111.447 327.526
L112.73 332.577
L114.033 338.811
L115.357 343.121
L116.702 344.934
L118.066 347.918
L119.452 342.173
L120.858 332.665
L122.284 335.466
L123.731 340.266
L125.199 341.729
L126.687 342.006
L128.195 323.425
L129.724 289.708
L131.274 267.417
L132.844 258.932
L134.434 258.453
L136.046 260.614
L137.677 252.721
L139.329 227.355
L141.002 191.102
L142.695 161.991
L144.409 144.965
L146.143 132.309
L147.898 127.452
L149.674 140.949
L151.469 176.358
L153.286 216.32
L156.98 286.496
L158.858 314.403
L160.757 333.315
L162.676 347.704
L164.615 359.666
L166.575 369.795
L168.556 377.818
L170.557 381.741
L172.579 382.13
L174.621 382.234
L176.683 383.27
L178.767 384.147
L180.87 383.814
L185.139 384.321
L187.305 382.644
L189.49 382.802
L191.697 384.243
L193.924 382.27
L196.171 379.136
L198.439 377.446
L200.727 376.447
L203.036 374.407
L205.366 372.081
L207.716 371.927
L210.086 373.546
L212.477 374.923
L214.889 375.088
L217.321 376.383
L219.774 379.217
L222.247 381.497
L224.741 383.058
L227.255 384.064
L229.79 384.464
L232.345 385.224
L234.921 386.423
L237.517 387.18
L240.134 387.628
L242.771 387.873
L245.429 387.777
L250.806 387.806
L253.526 387.485
L256.266 387.834
L259.026 388.47
L261.807 388.081
L264.609 387.863
L267.431 388.136
L273.137 387.767
L276.02 388.058
L284.794 388.553
L287.76 388.517
L293.753 388.079
L299.828 388.515
L302.897 388.472
L305.985 388.283
L312.225 388.747
L318.546 387.903
L321.738 388.028
L324.95 388.424
L328.182 388.362
L331.435 388.173
L334.709 388.637
L338.003 388.812
L341.318 388.429
L344.653 388.293
L351.385 388.48
L354.782 388.689
L361.637 388.385
L368.574 389.079
L372.073 388.81
L375.593 388.354
L379.133 388.366
L382.694 388.685
L393.5 388.543
L400.807 388.852
L404.491 388.766
L408.196 388.415
L411.921 388.327
L419.433 389.018
L423.219 389.06
L430.854 388.436
L434.703 388.389
L438.571 388.56
L454.252 388.701
L478.388 388.734
L494.89 388.617
L503.263 388.715
L520.257 388.785
L520.257 388.785" style="fill:none;stroke:#8dd3c7;stroke-linecap:square;stroke-width:2.0;"/>
   </g>
   <g id="line2d_2">
    <path clip-path="url(#p7ff5b81e1d)" d="
M72 388.8
L72.0012 -1
M72.5508 -1
L72.7389 299.262
L73.0057 398.585
L73.3135 283.523
L73.6625 384.487
L74.0524 380.461
L74.4834 339.661
L74.9555 380.154
L75.4686 374.594
L76.0227 361.595
L76.6179 380.823
L77.2542 375.714
L77.9315 367.579
L78.6498 375.026
L79.4092 372.92
L80.2097 367.87
L81.0511 366.68
L81.9337 359.627
L83.8219 337.687
L85.8743 313.903
L86.9621 297.612
L88.0909 276.497
L89.2608 258.806
L90.4717 245.237
L91.7237 229.064
L93.0167 215.759
L94.3508 209.881
L95.7259 208.823
L97.1421 211.602
L98.5993 225.997
L100.098 256.884
L101.637 283.597
L103.217 299.667
L104.839 317.662
L106.501 333.453
L109.949 354.661
L111.735 364.17
L113.561 371.229
L115.429 376.703
L117.338 380.239
L119.288 382.891
L121.278 385.844
L123.31 385.68
L125.383 383.285
L127.497 383.818
L129.652 386.193
L131.848 387.996
L134.086 388.477
L136.364 387.356
L138.683 385.693
L141.043 385.677
L143.445 387.945
L145.887 389.821
L148.37 388.533
L150.895 387.808
L153.46 388.963
L156.067 388.513
L158.714 385.124
L161.403 382.334
L166.904 386.059
L169.715 384.189
L172.568 380.264
L175.462 378.736
L178.397 380.04
L181.373 379.876
L184.39 375.272
L187.448 369.12
L190.547 365.393
L193.688 358.056
L196.869 343.743
L200.091 326.47
L203.354 310.909
L206.659 300.447
L210.004 297.923
L213.391 304.905
L220.287 329.82
L227.347 362.281
L230.939 370.208
L234.572 375.807
L238.246 381.856
L241.96 383.927
L245.716 384.719
L249.513 386.188
L253.351 386.743
L257.23 386.871
L261.15 387.141
L265.112 387.193
L273.157 386.954
L277.241 387.005
L281.367 387.691
L285.533 387.677
L289.741 385.782
L293.989 385.459
L298.279 386.418
L306.981 383.557
L311.394 382.507
L315.847 379.766
L320.342 377.371
L324.878 377.386
L329.455 379.286
L334.073 380.995
L338.732 382.008
L343.432 383.42
L348.173 385.278
L352.955 386.897
L357.778 387.684
L372.494 388.291
L377.481 388.141
L382.51 387.757
L387.579 387.965
L392.69 388.571
L397.841 388.556
L403.034 387.511
L408.267 387.276
L413.542 388.029
L418.858 388.159
L424.215 388.007
L429.613 388.003
L440.531 387.593
L446.052 387.427
L451.614 387.476
L457.218 387.782
L462.862 388.304
L468.547 388.677
L480.04 387.676
L485.849 388.261
L491.698 388.255
L497.589 387.809
L503.52 388.682
L509.493 389.099
L515.506 388.369
L521.561 387.917
L521.561 387.917" style="fill:none;stroke:#feffb3;stroke-linecap:square;stroke-width:2.0;"/>
   </g>
   <g id="line2d_3">
    <path clip-path="url(#p7ff5b81e1d)" d="
M72 388.8
L72.0308 232.01
L72.1231 73.9362
L72.2771 25.3374
L72.4926 109.626
L72.7697 166.36
L73.1083 126.07
L73.5085 138.397
L73.9703 174.376
L74.4937 176.253
L75.0786 199.372
L75.7251 234.742
L76.4332 242.271
L77.2029 221.924
L78.0341 224.56
L78.9269 248.468
L79.8813 242.06
L80.8972 243.569
L81.9747 266.549
L83.1138 268.681
L84.3145 273.407
L85.5767 299.345
L86.9005 324.203
L88.2859 337.344
L89.7329 340.98
L91.2414 340.84
L92.8115 341.413
L94.4431 344.799
L96.1364 350.777
L97.8912 357.618
L99.7076 364.089
L101.586 367.556
L103.525 363.233
L105.526 363.365
L107.589 380.355
L109.713 382.058
L111.899 367.512
L114.146 371.034
L116.455 379.707
L118.826 380.817
L121.258 380.842
L123.752 375.075
L126.307 367.985
L128.924 373.05
L131.602 382.259
L134.342 384.235
L137.144 378.871
L140.007 376.971
L142.931 379.359
L145.918 377.787
L148.966 376.543
L152.075 378.536
L155.246 381.058
L158.478 385.135
L161.773 385.392
L165.128 376.192
L168.546 371.821
L172.024 373.2
L175.565 369.24
L179.167 371.702
L182.83 374.373
L186.555 359.869
L190.342 354.772
L194.19 366.081
L198.1 371.494
L202.072 375.327
L206.105 379.667
L210.199 376.712
L214.355 374.674
L218.573 378.023
L222.852 381.487
L227.193 384.055
L231.596 383.988
L236.06 379.338
L240.585 376.482
L245.172 379.639
L249.821 383.684
L254.531 377.636
L259.303 367.428
L264.137 367.467
L269.032 366.219
L273.988 360.634
L279.006 363.109
L284.086 372.017
L289.227 378.539
L294.43 378.136
L299.695 377.943
L305.021 382.299
L310.408 386.743
L315.858 384.802
L321.368 380.19
L326.941 381.592
L332.574 383.433
L338.27 381.273
L344.027 379.465
L349.846 383.697
L355.726 389.394
L361.667 388.008
L367.671 386.415
L373.736 386.468
L379.862 383.333
L386.05 383.66
L392.3 387.008
L398.611 385.405
L404.984 383.639
L411.418 384.592
L417.914 384.155
L424.471 381.13
L431.09 377.926
L437.771 377.661
L444.513 379.981
L451.317 383.077
L458.182 384.958
L465.109 384.214
L472.098 382.86
L479.148 384.213
L486.259 386.328
L493.432 386.9
L500.667 386.469
L507.963 387.417
L515.321 388.697
L522.741 387.491" style="fill:none;stroke:#bfbbd9;stroke-linecap:square;stroke-width:2.0;"/>
   </g>
   <g id="patch_3">
    <path d="
M72 43.2
L518.4 43.2" style="fill:none;stroke:#ffffff;stroke-linecap:square;stroke-linejoin:miter;"/>
   </g>
   <g id="patch_4">
    <path d="
M518.4 388.8
L518.4 43.2" style="fill:none;stroke:#ffffff;stroke-linecap:square;stroke-linejoin:miter;"/>
   </g>
   <g id="patch_5">
    <path d="
M72 388.8
L518.4 388.8" style="fill:none;stroke:#ffffff;stroke-linecap:square;stroke-linejoin:miter;"/>
   </g>
   <g id="patch_6">
    <path d="
M72 388.8
L72 43.2" style="fill:none;stroke:#ffffff;stroke-linecap:square;stroke-linejoin:miter;"/>
   </g>
   <g id="matplotlib.axis_1">
    <g id="xtick_1">
     <g id="line2d_4">
      <defs>
       <path d="
M0 0
L0 -4" id="m65466783c8" style="stroke:#ffffff;stroke-width:0.5;"/>
      </defs>
      <g>
       <use style="fill:#ffffff;stroke:#ffffff;stroke-width:0.5;" x="72.0" xlink:href="#m65466783c8" y="388.8"/>
      </g>
     </g>
     <g id="line2d_5">
      <defs>
       <path d="
M0 0
L0 4" id="m63777a1061" style="stroke:#ffffff;stroke-width:0.5;"/>
      </defs>
      <g>
       <use style="fill:#ffffff;stroke:#ffffff;stroke-width:0.5;" x="72.0" xlink:href="#m63777a1061" y="43.2"/>
      </g>
     </g>
     <g id="text_1">
      <!-- 0 -->
      <defs>
       <path d="
M31.7812 66.4062
Q24.1719 66.4062 20.3281 58.9062
Q16.5 51.4219 16.5 36.375
Q16.5 21.3906 20.3281 13.8906
Q24.1719 6.39062 31.7812 6.39062
Q39.4531 6.39062 43.2812 13.8906
Q47.125 21.3906 47.125 36.375
Q47.125 51.4219 43.2812 58.9062
Q39.4531 66.4062 31.7812 66.4062
M31.7812 74.2188
Q44.0469 74.2188 50.5156 64.5156
Q56.9844 54.8281 56.9844 36.375
Q56.9844 17.9688 50.5156 8.26562
Q44.0469 -1.42188 31.7812 -1.42188
Q19.5312 -1.42188 13.0625 8.26562
Q6.59375 17.9688 6.59375 36.375
Q6.59375 54.8281 13.0625 64.5156
Q19.5312 74.2188 31.7812 74.2188" id="BitstreamVeraSans-Roman-30"/>
      </defs>
      <g style="fill:#ffffff;" transform="translate(68.9765625 401.918125)scale(0.12 -0.12)">
       <use xlink:href="#BitstreamVeraSans-Roman-30"/>
      </g>
     </g>
    </g>
    <g id="xtick_2">
     <g id="line2d_6">
      <g>
       <use style="fill:#ffffff;stroke:#ffffff;stroke-width:0.5;" x="131.52" xlink:href="#m65466783c8" y="388.8"/>
      </g>
     </g>
     <g id="line2d_7">
      <g>
       <use style="fill:#ffffff;stroke:#ffffff;stroke-width:0.5;" x="131.52" xlink:href="#m63777a1061" y="43.2"/>
      </g>
     </g>
     <g id="text_2">
      <!-- 2 -->
      <defs>
       <path d="
M19.1875 8.29688
L53.6094 8.29688
L53.6094 0
L7.32812 0
L7.32812 8.29688
Q12.9375 14.1094 22.625 23.8906
Q32.3281 33.6875 34.8125 36.5312
Q39.5469 41.8438 41.4219 45.5312
Q43.3125 49.2188 43.3125 52.7812
Q43.3125 58.5938 39.2344 62.25
Q35.1562 65.9219 28.6094 65.9219
Q23.9688 65.9219 18.8125 64.3125
Q13.6719 62.7031 7.8125 59.4219
L7.8125 69.3906
Q13.7656 71.7812 18.9375 73
Q24.125 74.2188 28.4219 74.2188
Q39.75 74.2188 46.4844 68.5469
Q53.2188 62.8906 53.2188 53.4219
Q53.2188 48.9219 51.5312 44.8906
Q49.8594 40.875 45.4062 35.4062
Q44.1875 33.9844 37.6406 27.2188
Q31.1094 20.4531 19.1875 8.29688" id="BitstreamVeraSans-Roman-32"/>
      </defs>
      <g style="fill:#ffffff;" transform="translate(128.743125 401.918125)scale(0.12 -0.12)">
       <use xlink:href="#BitstreamVeraSans-Roman-32"/>
      </g>
     </g>
    </g>
    <g id="xtick_3">
     <g id="line2d_8">
      <g>
       <use style="fill:#ffffff;stroke:#ffffff;stroke-width:0.5;" x="191.04" xlink:href="#m65466783c8" y="388.8"/>
      </g>
     </g>
     <g id="line2d_9">
      <g>
       <use style="fill:#ffffff;stroke:#ffffff;stroke-width:0.5;" x="191.04" xlink:href="#m63777a1061" y="43.2"/>
      </g>
     </g>
     <g id="text_3">
      <!-- 4 -->
      <defs>
       <path d="
M37.7969 64.3125
L12.8906 25.3906
L37.7969 25.3906
z

M35.2031 72.9062
L47.6094 72.9062
L47.6094 25.3906
L58.0156 25.3906
L58.0156 17.1875
L47.6094 17.1875
L47.6094 0
L37.7969 0
L37.7969 17.1875
L4.89062 17.1875
L4.89062 26.7031
z
" id="BitstreamVeraSans-Roman-34"/>
      </defs>
      <g style="fill:#ffffff;" transform="translate(187.8525 401.918125)scale(0.12 -0.12)">
       <use xlink:href="#BitstreamVeraSans-Roman-34"/>
      </g>
     </g>
    </g>
    <g id="xtick_4">
     <g id="line2d_10">
      <g>
       <use style="fill:#ffffff;stroke:#ffffff;stroke-width:0.5;" x="250.56" xlink:href="#m65466783c8" y="388.8"/>
      </g>
     </g>
     <g id="line2d_11">
      <g>
       <use style="fill:#ffffff;stroke:#ffffff;stroke-width:0.5;" x="250.56" xlink:href="#m63777a1061" y="43.2"/>
      </g>
     </g>
     <g id="text_4">
      <!-- 6 -->
      <defs>
       <path d="
M33.0156 40.375
Q26.375 40.375 22.4844 35.8281
Q18.6094 31.2969 18.6094 23.3906
Q18.6094 15.5312 22.4844 10.9531
Q26.375 6.39062 33.0156 6.39062
Q39.6562 6.39062 43.5312 10.9531
Q47.4062 15.5312 47.4062 23.3906
Q47.4062 31.2969 43.5312 35.8281
Q39.6562 40.375 33.0156 40.375
M52.5938 71.2969
L52.5938 62.3125
Q48.875 64.0625 45.0938 64.9844
Q41.3125 65.9219 37.5938 65.9219
Q27.8281 65.9219 22.6719 59.3281
Q17.5312 52.7344 16.7969 39.4062
Q19.6719 43.6562 24.0156 45.9219
Q28.375 48.1875 33.5938 48.1875
Q44.5781 48.1875 50.9531 41.5156
Q57.3281 34.8594 57.3281 23.3906
Q57.3281 12.1562 50.6875 5.35938
Q44.0469 -1.42188 33.0156 -1.42188
Q20.3594 -1.42188 13.6719 8.26562
Q6.98438 17.9688 6.98438 36.375
Q6.98438 53.6562 15.1875 63.9375
Q23.3906 74.2188 37.2031 74.2188
Q40.9219 74.2188 44.7031 73.4844
Q48.4844 72.75 52.5938 71.2969" id="BitstreamVeraSans-Roman-36"/>
      </defs>
      <g style="fill:#ffffff;" transform="translate(247.539375 401.918125)scale(0.12 -0.12)">
       <use xlink:href="#BitstreamVeraSans-Roman-36"/>
      </g>
     </g>
    </g>
    <g id="xtick_5">
     <g id="line2d_12">
      <g>
       <use style="fill:#ffffff;stroke:#ffffff;stroke-width:0.5;" x="310.08" xlink:href="#m65466783c8" y="388.8"/>
      </g>
     </g>
     <g id="line2d_13">
      <g>
       <use style="fill:#ffffff;stroke:#ffffff;stroke-width:0.5;" x="310.08" xlink:href="#m63777a1061" y="43.2"/>
      </g>
     </g>
     <g id="text_5">
      <!-- 8 -->
      <defs>
       <path d="
M31.7812 34.625
Q24.75 34.625 20.7188 30.8594
Q16.7031 27.0938 16.7031 20.5156
Q16.7031 13.9219 20.7188 10.1562
Q24.75 6.39062 31.7812 6.39062
Q38.8125 6.39062 42.8594 10.1719
Q46.9219 13.9688 46.9219 20.5156
Q46.9219 27.0938 42.8906 30.8594
Q38.875 34.625 31.7812 34.625
M21.9219 38.8125
Q15.5781 40.375 12.0312 44.7188
Q8.5 49.0781 8.5 55.3281
Q8.5 64.0625 14.7188 69.1406
Q20.9531 74.2188 31.7812 74.2188
Q42.6719 74.2188 48.875 69.1406
Q55.0781 64.0625 55.0781 55.3281
Q55.0781 49.0781 51.5312 44.7188
Q48 40.375 41.7031 38.8125
Q48.8281 37.1562 52.7969 32.3125
Q56.7812 27.4844 56.7812 20.5156
Q56.7812 9.90625 50.3125 4.23438
Q43.8438 -1.42188 31.7812 -1.42188
Q19.7344 -1.42188 13.25 4.23438
Q6.78125 9.90625 6.78125 20.5156
Q6.78125 27.4844 10.7812 32.3125
Q14.7969 37.1562 21.9219 38.8125
M18.3125 54.3906
Q18.3125 48.7344 21.8438 45.5625
Q25.3906 42.3906 31.7812 42.3906
Q38.1406 42.3906 41.7188 45.5625
Q45.3125 48.7344 45.3125 54.3906
Q45.3125 60.0625 41.7188 63.2344
Q38.1406 66.4062 31.7812 66.4062
Q25.3906 66.4062 21.8438 63.2344
Q18.3125 60.0625 18.3125 54.3906" id="BitstreamVeraSans-Roman-38"/>
      </defs>
      <g style="fill:#ffffff;" transform="translate(307.08 401.918125)scale(0.12 -0.12)">
       <use xlink:href="#BitstreamVeraSans-Roman-38"/>
      </g>
     </g>
    </g>
    <g id="xtick_6">
     <g id="line2d_14">
      <g>
       <use style="fill:#ffffff;stroke:#ffffff;stroke-width:0.5;" x="369.6" xlink:href="#m65466783c8" y="388.8"/>
      </g>
     </g>
     <g id="line2d_15">
      <g>
       <use style="fill:#ffffff;stroke:#ffffff;stroke-width:0.5;" x="369.6" xlink:href="#m63777a1061" y="43.2"/>
      </g>
     </g>
     <g id="text_6">
      <!-- 10 -->
      <defs>
       <path d="
M12.4062 8.29688
L28.5156 8.29688
L28.5156 63.9219
L10.9844 60.4062
L10.9844 69.3906
L28.4219 72.9062
L38.2812 72.9062
L38.2812 8.29688
L54.3906 8.29688
L54.3906 0
L12.4062 0
z
" id="BitstreamVeraSans-Roman-31"/>
      </defs>
      <g style="fill:#ffffff;" transform="translate(363.0225 401.918125)scale(0.12 -0.12)">
       <use xlink:href="#BitstreamVeraSans-Roman-31"/>
       <use x="63.623046875" xlink:href="#BitstreamVeraSans-Roman-30"/>
      </g>
     </g>
    </g>
    <g id="xtick_7">
     <g id="line2d_16">
      <g>
       <use style="fill:#ffffff;stroke:#ffffff;stroke-width:0.5;" x="429.12" xlink:href="#m65466783c8" y="388.8"/>
      </g>
     </g>
     <g id="line2d_17">
      <g>
       <use style="fill:#ffffff;stroke:#ffffff;stroke-width:0.5;" x="429.12" xlink:href="#m63777a1061" y="43.2"/>
      </g>
     </g>
     <g id="text_7">
      <!-- 12 -->
      <g style="fill:#ffffff;" transform="translate(422.745 401.918125)scale(0.12 -0.12)">
       <use xlink:href="#BitstreamVeraSans-Roman-31"/>
       <use x="63.623046875" xlink:href="#BitstreamVeraSans-Roman-32"/>
      </g>
     </g>
    </g>
    <g id="xtick_8">
     <g id="line2d_18">
      <g>
       <use style="fill:#ffffff;stroke:#ffffff;stroke-width:0.5;" x="488.64" xlink:href="#m65466783c8" y="388.8"/>
      </g>
     </g>
     <g id="line2d_19">
      <g>
       <use style="fill:#ffffff;stroke:#ffffff;stroke-width:0.5;" x="488.64" xlink:href="#m63777a1061" y="43.2"/>
      </g>
     </g>
     <g id="text_8">
      <!-- 14 -->
      <g style="fill:#ffffff;" transform="translate(482.000625 401.918125)scale(0.12 -0.12)">
       <use xlink:href="#BitstreamVeraSans-Roman-31"/>
       <use x="63.623046875" xlink:href="#BitstreamVeraSans-Roman-34"/>
      </g>
     </g>
    </g>
    <g id="text_9">
     <!-- Kinetic Energy [eV] -->
     <defs>
      <path id="BitstreamVeraSans-Roman-20"/>
      <path d="
M8.59375 75.9844
L29.2969 75.9844
L29.2969 69
L17.5781 69
L17.5781 -6.20312
L29.2969 -6.20312
L29.2969 -13.1875
L8.59375 -13.1875
z
" id="BitstreamVeraSans-Roman-5b"/>
      <path d="
M30.4219 75.9844
L30.4219 -13.1875
L9.71875 -13.1875
L9.71875 -6.20312
L21.3906 -6.20312
L21.3906 69
L9.71875 69
L9.71875 75.9844
z
" id="BitstreamVeraSans-Roman-5d"/>
      <path d="
M9.8125 72.9062
L19.6719 72.9062
L19.6719 42.0938
L52.3906 72.9062
L65.0938 72.9062
L28.9062 38.9219
L67.6719 0
L54.6875 0
L19.6719 35.1094
L19.6719 0
L9.8125 0
z
" id="BitstreamVeraSans-Roman-4b"/>
      <path d="
M54.8906 33.0156
L54.8906 0
L45.9062 0
L45.9062 32.7188
Q45.9062 40.4844 42.875 44.3281
Q39.8438 48.1875 33.7969 48.1875
Q26.5156 48.1875 22.3125 43.5469
Q18.1094 38.9219 18.1094 30.9062
L18.1094 0
L9.07812 0
L9.07812 54.6875
L18.1094 54.6875
L18.1094 46.1875
Q21.3438 51.125 25.7031 53.5625
Q30.0781 56 35.7969 56
Q45.2188 56 50.0469 50.1719
Q54.8906 44.3438 54.8906 33.0156" id="BitstreamVeraSans-Roman-6e"/>
      <path d="
M9.8125 72.9062
L55.9062 72.9062
L55.9062 64.5938
L19.6719 64.5938
L19.6719 43.0156
L54.3906 43.0156
L54.3906 34.7188
L19.6719 34.7188
L19.6719 8.29688
L56.7812 8.29688
L56.7812 0
L9.8125 0
z
" id="BitstreamVeraSans-Roman-45"/>
      <path d="
M9.42188 54.6875
L18.4062 54.6875
L18.4062 0
L9.42188 0
z

M9.42188 75.9844
L18.4062 75.9844
L18.4062 64.5938
L9.42188 64.5938
z
" id="BitstreamVeraSans-Roman-69"/>
      <path d="
M28.6094 0
L0.78125 72.9062
L11.0781 72.9062
L34.1875 11.5312
L57.3281 72.9062
L67.5781 72.9062
L39.7969 0
z
" id="BitstreamVeraSans-Roman-56"/>
      <path d="
M32.1719 -5.07812
Q28.375 -14.8438 24.75 -17.8125
Q21.1406 -20.7969 15.0938 -20.7969
L7.90625 -20.7969
L7.90625 -13.2812
L13.1875 -13.2812
Q16.8906 -13.2812 18.9375 -11.5156
Q21 -9.76562 23.4844 -3.21875
L25.0938 0.875
L2.98438 54.6875
L12.5 54.6875
L29.5938 11.9219
L46.6875 54.6875
L56.2031 54.6875
z
" id="BitstreamVeraSans-Roman-79"/>
      <path d="
M56.2031 29.5938
L56.2031 25.2031
L14.8906 25.2031
Q15.4844 15.9219 20.4844 11.0625
Q25.4844 6.20312 34.4219 6.20312
Q39.5938 6.20312 44.4531 7.46875
Q49.3125 8.73438 54.1094 11.2812
L54.1094 2.78125
Q49.2656 0.734375 44.1875 -0.34375
Q39.1094 -1.42188 33.8906 -1.42188
Q20.7969 -1.42188 13.1562 6.1875
Q5.51562 13.8125 5.51562 26.8125
Q5.51562 40.2344 12.7656 48.1094
Q20.0156 56 32.3281 56
Q43.3594 56 49.7812 48.8906
Q56.2031 41.7969 56.2031 29.5938
M47.2188 32.2344
Q47.125 39.5938 43.0938 43.9844
Q39.0625 48.3906 32.4219 48.3906
Q24.9062 48.3906 20.3906 44.1406
Q15.875 39.8906 15.1875 32.1719
z
" id="BitstreamVeraSans-Roman-65"/>
      <path d="
M18.3125 70.2188
L18.3125 54.6875
L36.8125 54.6875
L36.8125 47.7031
L18.3125 47.7031
L18.3125 18.0156
Q18.3125 11.3281 20.1406 9.42188
Q21.9688 7.51562 27.5938 7.51562
L36.8125 7.51562
L36.8125 0
L27.5938 0
Q17.1875 0 13.2344 3.875
Q9.28125 7.76562 9.28125 18.0156
L9.28125 47.7031
L2.6875 47.7031
L2.6875 54.6875
L9.28125 54.6875
L9.28125 70.2188
z
" id="BitstreamVeraSans-Roman-74"/>
      <path d="
M41.1094 46.2969
Q39.5938 47.1719 37.8125 47.5781
Q36.0312 48 33.8906 48
Q26.2656 48 22.1875 43.0469
Q18.1094 38.0938 18.1094 28.8125
L18.1094 0
L9.07812 0
L9.07812 54.6875
L18.1094 54.6875
L18.1094 46.1875
Q20.9531 51.1719 25.4844 53.5781
Q30.0312 56 36.5312 56
Q37.4531 56 38.5781 55.875
Q39.7031 55.7656 41.0625 55.5156
z
" id="BitstreamVeraSans-Roman-72"/>
      <path d="
M45.4062 27.9844
Q45.4062 37.75 41.375 43.1094
Q37.3594 48.4844 30.0781 48.4844
Q22.8594 48.4844 18.8281 43.1094
Q14.7969 37.75 14.7969 27.9844
Q14.7969 18.2656 18.8281 12.8906
Q22.8594 7.51562 30.0781 7.51562
Q37.3594 7.51562 41.375 12.8906
Q45.4062 18.2656 45.4062 27.9844
M54.3906 6.78125
Q54.3906 -7.17188 48.1875 -13.9844
Q42 -20.7969 29.2031 -20.7969
Q24.4688 -20.7969 20.2656 -20.0938
Q16.0625 -19.3906 12.1094 -17.9219
L12.1094 -9.1875
Q16.0625 -11.3281 19.9219 -12.3438
Q23.7812 -13.375 27.7812 -13.375
Q36.625 -13.375 41.0156 -8.76562
Q45.4062 -4.15625 45.4062 5.17188
L45.4062 9.625
Q42.625 4.78125 38.2812 2.39062
Q33.9375 0 27.875 0
Q17.8281 0 11.6719 7.65625
Q5.51562 15.3281 5.51562 27.9844
Q5.51562 40.6719 11.6719 48.3281
Q17.8281 56 27.875 56
Q33.9375 56 38.2812 53.6094
Q42.625 51.2188 45.4062 46.3906
L45.4062 54.6875
L54.3906 54.6875
z
" id="BitstreamVeraSans-Roman-67"/>
      <path d="
M48.7812 52.5938
L48.7812 44.1875
Q44.9688 46.2969 41.1406 47.3438
Q37.3125 48.3906 33.4062 48.3906
Q24.6562 48.3906 19.8125 42.8438
Q14.9844 37.3125 14.9844 27.2969
Q14.9844 17.2812 19.8125 11.7344
Q24.6562 6.20312 33.4062 6.20312
Q37.3125 6.20312 41.1406 7.25
Q44.9688 8.29688 48.7812 10.4062
L48.7812 2.09375
Q45.0156 0.34375 40.9844 -0.53125
Q36.9688 -1.42188 32.4219 -1.42188
Q20.0625 -1.42188 12.7812 6.34375
Q5.51562 14.1094 5.51562 27.2969
Q5.51562 40.6719 12.8594 48.3281
Q20.2188 56 33.0156 56
Q37.1562 56 41.1094 55.1406
Q45.0625 54.2969 48.7812 52.5938" id="BitstreamVeraSans-Roman-63"/>
     </defs>
     <g style="fill:#ffffff;" transform="translate(228.46921875 420.0515625)scale(0.14 -0.14)">
      <use xlink:href="#BitstreamVeraSans-Roman-4b"/>
      <use x="65.576171875" xlink:href="#BitstreamVeraSans-Roman-69"/>
      <use x="93.359375" xlink:href="#BitstreamVeraSans-Roman-6e"/>
      <use x="156.73828125" xlink:href="#BitstreamVeraSans-Roman-65"/>
      <use x="218.26171875" xlink:href="#BitstreamVeraSans-Roman-74"/>
      <use x="257.470703125" xlink:href="#BitstreamVeraSans-Roman-69"/>
      <use x="285.25390625" xlink:href="#BitstreamVeraSans-Roman-63"/>
      <use x="340.234375" xlink:href="#BitstreamVeraSans-Roman-20"/>
      <use x="372.021484375" xlink:href="#BitstreamVeraSans-Roman-45"/>
      <use x="435.205078125" xlink:href="#BitstreamVeraSans-Roman-6e"/>
      <use x="498.583984375" xlink:href="#BitstreamVeraSans-Roman-65"/>
      <use x="560.107421875" xlink:href="#BitstreamVeraSans-Roman-72"/>
      <use x="599.470703125" xlink:href="#BitstreamVeraSans-Roman-67"/>
      <use x="662.947265625" xlink:href="#BitstreamVeraSans-Roman-79"/>
      <use x="722.126953125" xlink:href="#BitstreamVeraSans-Roman-20"/>
      <use x="753.9140625" xlink:href="#BitstreamVeraSans-Roman-5b"/>
      <use x="792.927734375" xlink:href="#BitstreamVeraSans-Roman-65"/>
      <use x="854.451171875" xlink:href="#BitstreamVeraSans-Roman-56"/>
      <use x="922.859375" xlink:href="#BitstreamVeraSans-Roman-5d"/>
     </g>
    </g>
   </g>
   <g id="matplotlib.axis_2">
    <g id="ytick_1">
     <g id="line2d_20">
      <defs>
       <path d="
M0 0
L4 0" id="m0a16658aff" style="stroke:#ffffff;stroke-width:0.5;"/>
      </defs>
      <g>
       <use style="fill:#ffffff;stroke:#ffffff;stroke-width:0.5;" x="72.0" xlink:href="#m0a16658aff" y="388.8"/>
      </g>
     </g>
     <g id="line2d_21">
      <defs>
       <path d="
M0 0
L-4 0" id="me3d7da525a" style="stroke:#ffffff;stroke-width:0.5;"/>
      </defs>
      <g>
       <use style="fill:#ffffff;stroke:#ffffff;stroke-width:0.5;" x="518.4" xlink:href="#me3d7da525a" y="388.8"/>
      </g>
     </g>
     <g id="text_10">
      <!-- 0 -->
      <g style="fill:#ffffff;" transform="translate(61.953125 392.11125)scale(0.12 -0.12)">
       <use xlink:href="#BitstreamVeraSans-Roman-30"/>
      </g>
     </g>
    </g>
    <g id="ytick_2">
     <g id="line2d_22">
      <g>
       <use style="fill:#ffffff;stroke:#ffffff;stroke-width:0.5;" x="72.0" xlink:href="#m0a16658aff" y="331.2"/>
      </g>
     </g>
     <g id="line2d_23">
      <g>
       <use style="fill:#ffffff;stroke:#ffffff;stroke-width:0.5;" x="518.4" xlink:href="#me3d7da525a" y="331.2"/>
      </g>
     </g>
     <g id="text_11">
      <!-- 50 -->
      <defs>
       <path d="
M10.7969 72.9062
L49.5156 72.9062
L49.5156 64.5938
L19.8281 64.5938
L19.8281 46.7344
Q21.9688 47.4688 24.1094 47.8281
Q26.2656 48.1875 28.4219 48.1875
Q40.625 48.1875 47.75 41.5
Q54.8906 34.8125 54.8906 23.3906
Q54.8906 11.625 47.5625 5.09375
Q40.2344 -1.42188 26.9062 -1.42188
Q22.3125 -1.42188 17.5469 -0.640625
Q12.7969 0.140625 7.71875 1.70312
L7.71875 11.625
Q12.1094 9.23438 16.7969 8.0625
Q21.4844 6.89062 26.7031 6.89062
Q35.1562 6.89062 40.0781 11.3281
Q45.0156 15.7656 45.0156 23.3906
Q45.0156 31 40.0781 35.4375
Q35.1562 39.8906 26.7031 39.8906
Q22.75 39.8906 18.8125 39.0156
Q14.8906 38.1406 10.7969 36.2812
z
" id="BitstreamVeraSans-Roman-35"/>
      </defs>
      <g style="fill:#ffffff;" transform="translate(54.453125 334.51125)scale(0.12 -0.12)">
       <use xlink:href="#BitstreamVeraSans-Roman-35"/>
       <use x="63.623046875" xlink:href="#BitstreamVeraSans-Roman-30"/>
      </g>
     </g>
    </g>
    <g id="ytick_3">
     <g id="line2d_24">
      <g>
       <use style="fill:#ffffff;stroke:#ffffff;stroke-width:0.5;" x="72.0" xlink:href="#m0a16658aff" y="273.6"/>
      </g>
     </g>
     <g id="line2d_25">
      <g>
       <use style="fill:#ffffff;stroke:#ffffff;stroke-width:0.5;" x="518.4" xlink:href="#me3d7da525a" y="273.6"/>
      </g>
     </g>
     <g id="text_12">
      <!-- 100 -->
      <g style="fill:#ffffff;" transform="translate(47.21 276.91125)scale(0.12 -0.12)">
       <use xlink:href="#BitstreamVeraSans-Roman-31"/>
       <use x="63.623046875" xlink:href="#BitstreamVeraSans-Roman-30"/>
       <use x="127.24609375" xlink:href="#BitstreamVeraSans-Roman-30"/>
      </g>
     </g>
    </g>
    <g id="ytick_4">
     <g id="line2d_26">
      <g>
       <use style="fill:#ffffff;stroke:#ffffff;stroke-width:0.5;" x="72.0" xlink:href="#m0a16658aff" y="216.0"/>
      </g>
     </g>
     <g id="line2d_27">
      <g>
       <use style="fill:#ffffff;stroke:#ffffff;stroke-width:0.5;" x="518.4" xlink:href="#me3d7da525a" y="216.0"/>
      </g>
     </g>
     <g id="text_13">
      <!-- 150 -->
      <g style="fill:#ffffff;" transform="translate(47.21 219.31125)scale(0.12 -0.12)">
       <use xlink:href="#BitstreamVeraSans-Roman-31"/>
       <use x="63.623046875" xlink:href="#BitstreamVeraSans-Roman-35"/>
       <use x="127.24609375" xlink:href="#BitstreamVeraSans-Roman-30"/>
      </g>
     </g>
    </g>
    <g id="ytick_5">
     <g id="line2d_28">
      <g>
       <use style="fill:#ffffff;stroke:#ffffff;stroke-width:0.5;" x="72.0" xlink:href="#m0a16658aff" y="158.4"/>
      </g>
     </g>
     <g id="line2d_29">
      <g>
       <use style="fill:#ffffff;stroke:#ffffff;stroke-width:0.5;" x="518.4" xlink:href="#me3d7da525a" y="158.4"/>
      </g>
     </g>
     <g id="text_14">
      <!-- 200 -->
      <g style="fill:#ffffff;" transform="translate(46.77125 161.71125)scale(0.12 -0.12)">
       <use xlink:href="#BitstreamVeraSans-Roman-32"/>
       <use x="63.623046875" xlink:href="#BitstreamVeraSans-Roman-30"/>
       <use x="127.24609375" xlink:href="#BitstreamVeraSans-Roman-30"/>
      </g>
     </g>
    </g>
    <g id="ytick_6">
     <g id="line2d_30">
      <g>
       <use style="fill:#ffffff;stroke:#ffffff;stroke-width:0.5;" x="72.0" xlink:href="#m0a16658aff" y="100.8"/>
      </g>
     </g>
     <g id="line2d_31">
      <g>
       <use style="fill:#ffffff;stroke:#ffffff;stroke-width:0.5;" x="518.4" xlink:href="#me3d7da525a" y="100.8"/>
      </g>
     </g>
     <g id="text_15">
      <!-- 250 -->
      <g style="fill:#ffffff;" transform="translate(46.77125 104.11125)scale(0.12 -0.12)">
       <use xlink:href="#BitstreamVeraSans-Roman-32"/>
       <use x="63.623046875" xlink:href="#BitstreamVeraSans-Roman-35"/>
       <use x="127.24609375" xlink:href="#BitstreamVeraSans-Roman-30"/>
      </g>
     </g>
    </g>
    <g id="ytick_7">
     <g id="line2d_32">
      <g>
       <use style="fill:#ffffff;stroke:#ffffff;stroke-width:0.5;" x="72.0" xlink:href="#m0a16658aff" y="43.2"/>
      </g>
     </g>
     <g id="line2d_33">
      <g>
       <use style="fill:#ffffff;stroke:#ffffff;stroke-width:0.5;" x="518.4" xlink:href="#me3d7da525a" y="43.2"/>
      </g>
     </g>
     <g id="text_16">
      <!-- 300 -->
      <defs>
       <path d="
M40.5781 39.3125
Q47.6562 37.7969 51.625 33
Q55.6094 28.2188 55.6094 21.1875
Q55.6094 10.4062 48.1875 4.48438
Q40.7656 -1.42188 27.0938 -1.42188
Q22.5156 -1.42188 17.6562 -0.515625
Q12.7969 0.390625 7.625 2.20312
L7.625 11.7188
Q11.7188 9.32812 16.5938 8.10938
Q21.4844 6.89062 26.8125 6.89062
Q36.0781 6.89062 40.9375 10.5469
Q45.7969 14.2031 45.7969 21.1875
Q45.7969 27.6406 41.2812 31.2656
Q36.7656 34.9062 28.7188 34.9062
L20.2188 34.9062
L20.2188 43.0156
L29.1094 43.0156
Q36.375 43.0156 40.2344 45.9219
Q44.0938 48.8281 44.0938 54.2969
Q44.0938 59.9062 40.1094 62.9062
Q36.1406 65.9219 28.7188 65.9219
Q24.6562 65.9219 20.0156 65.0312
Q15.375 64.1562 9.8125 62.3125
L9.8125 71.0938
Q15.4375 72.6562 20.3438 73.4375
Q25.25 74.2188 29.5938 74.2188
Q40.8281 74.2188 47.3594 69.1094
Q53.9062 64.0156 53.9062 55.3281
Q53.9062 49.2656 50.4375 45.0938
Q46.9688 40.9219 40.5781 39.3125" id="BitstreamVeraSans-Roman-33"/>
      </defs>
      <g style="fill:#ffffff;" transform="translate(46.806875 46.51125)scale(0.12 -0.12)">
       <use xlink:href="#BitstreamVeraSans-Roman-33"/>
       <use x="63.623046875" xlink:href="#BitstreamVeraSans-Roman-30"/>
       <use x="127.24609375" xlink:href="#BitstreamVeraSans-Roman-30"/>
      </g>
     </g>
    </g>
    <g id="text_17">
     <!-- Intensity [arb. u.] -->
     <defs>
      <path d="
M10.6875 12.4062
L21 12.4062
L21 0
L10.6875 0
z
" id="BitstreamVeraSans-Roman-2e"/>
      <path d="
M8.5 21.5781
L8.5 54.6875
L17.4844 54.6875
L17.4844 21.9219
Q17.4844 14.1562 20.5 10.2656
Q23.5312 6.39062 29.5938 6.39062
Q36.8594 6.39062 41.0781 11.0312
Q45.3125 15.6719 45.3125 23.6875
L45.3125 54.6875
L54.2969 54.6875
L54.2969 0
L45.3125 0
L45.3125 8.40625
Q42.0469 3.42188 37.7188 1
Q33.4062 -1.42188 27.6875 -1.42188
Q18.2656 -1.42188 13.375 4.4375
Q8.5 10.2969 8.5 21.5781" id="BitstreamVeraSans-Roman-75"/>
      <path d="
M34.2812 27.4844
Q23.3906 27.4844 19.1875 25
Q14.9844 22.5156 14.9844 16.5
Q14.9844 11.7188 18.1406 8.90625
Q21.2969 6.10938 26.7031 6.10938
Q34.1875 6.10938 38.7031 11.4062
Q43.2188 16.7031 43.2188 25.4844
L43.2188 27.4844
z

M52.2031 31.2031
L52.2031 0
L43.2188 0
L43.2188 8.29688
Q40.1406 3.32812 35.5469 0.953125
Q30.9531 -1.42188 24.3125 -1.42188
Q15.9219 -1.42188 10.9531 3.29688
Q6 8.01562 6 15.9219
Q6 25.1406 12.1719 29.8281
Q18.3594 34.5156 30.6094 34.5156
L43.2188 34.5156
L43.2188 35.4062
Q43.2188 41.6094 39.1406 45
Q35.0625 48.3906 27.6875 48.3906
Q23 48.3906 18.5469 47.2656
Q14.1094 46.1406 10.0156 43.8906
L10.0156 52.2031
Q14.9375 54.1094 19.5781 55.0469
Q24.2188 56 28.6094 56
Q40.4844 56 46.3438 49.8438
Q52.2031 43.7031 52.2031 31.2031" id="BitstreamVeraSans-Roman-61"/>
      <path d="
M44.2812 53.0781
L44.2812 44.5781
Q40.4844 46.5312 36.375 47.5
Q32.2812 48.4844 27.875 48.4844
Q21.1875 48.4844 17.8438 46.4375
Q14.5 44.3906 14.5 40.2812
Q14.5 37.1562 16.8906 35.375
Q19.2812 33.5938 26.5156 31.9844
L29.5938 31.2969
Q39.1562 29.25 43.1875 25.5156
Q47.2188 21.7812 47.2188 15.0938
Q47.2188 7.46875 41.1875 3.01562
Q35.1562 -1.42188 24.6094 -1.42188
Q20.2188 -1.42188 15.4531 -0.5625
Q10.6875 0.296875 5.42188 2
L5.42188 11.2812
Q10.4062 8.6875 15.2344 7.39062
Q20.0625 6.10938 24.8125 6.10938
Q31.1562 6.10938 34.5625 8.28125
Q37.9844 10.4531 37.9844 14.4062
Q37.9844 18.0625 35.5156 20.0156
Q33.0625 21.9688 24.7031 23.7812
L21.5781 24.5156
Q13.2344 26.2656 9.51562 29.9062
Q5.8125 33.5469 5.8125 39.8906
Q5.8125 47.6094 11.2812 51.7969
Q16.75 56 26.8125 56
Q31.7812 56 36.1719 55.2656
Q40.5781 54.5469 44.2812 53.0781" id="BitstreamVeraSans-Roman-73"/>
      <path d="
M9.8125 72.9062
L19.6719 72.9062
L19.6719 0
L9.8125 0
z
" id="BitstreamVeraSans-Roman-49"/>
      <path d="
M48.6875 27.2969
Q48.6875 37.2031 44.6094 42.8438
Q40.5312 48.4844 33.4062 48.4844
Q26.2656 48.4844 22.1875 42.8438
Q18.1094 37.2031 18.1094 27.2969
Q18.1094 17.3906 22.1875 11.75
Q26.2656 6.10938 33.4062 6.10938
Q40.5312 6.10938 44.6094 11.75
Q48.6875 17.3906 48.6875 27.2969
M18.1094 46.3906
Q20.9531 51.2656 25.2656 53.625
Q29.5938 56 35.5938 56
Q45.5625 56 51.7812 48.0938
Q58.0156 40.1875 58.0156 27.2969
Q58.0156 14.4062 51.7812 6.48438
Q45.5625 -1.42188 35.5938 -1.42188
Q29.5938 -1.42188 25.2656 0.953125
Q20.9531 3.32812 18.1094 8.20312
L18.1094 0
L9.07812 0
L9.07812 75.9844
L18.1094 75.9844
z
" id="BitstreamVeraSans-Roman-62"/>
     </defs>
     <g style="fill:#ffffff;" transform="translate(38.8596875 276.274375)rotate(-90.0)scale(0.14 -0.14)">
      <use xlink:href="#BitstreamVeraSans-Roman-49"/>
      <use x="29.4921875" xlink:href="#BitstreamVeraSans-Roman-6e"/>
      <use x="92.87109375" xlink:href="#BitstreamVeraSans-Roman-74"/>
      <use x="132.080078125" xlink:href="#BitstreamVeraSans-Roman-65"/>
      <use x="193.603515625" xlink:href="#BitstreamVeraSans-Roman-6e"/>
      <use x="256.982421875" xlink:href="#BitstreamVeraSans-Roman-73"/>
      <use x="309.08203125" xlink:href="#BitstreamVeraSans-Roman-69"/>
      <use x="336.865234375" xlink:href="#BitstreamVeraSans-Roman-74"/>
      <use x="376.07421875" xlink:href="#BitstreamVeraSans-Roman-79"/>
      <use x="435.25390625" xlink:href="#BitstreamVeraSans-Roman-20"/>
      <use x="467.041015625" xlink:href="#BitstreamVeraSans-Roman-5b"/>
      <use x="506.0546875" xlink:href="#BitstreamVeraSans-Roman-61"/>
      <use x="567.333984375" xlink:href="#BitstreamVeraSans-Roman-72"/>
      <use x="608.447265625" xlink:href="#BitstreamVeraSans-Roman-62"/>
      <use x="671.923828125" xlink:href="#BitstreamVeraSans-Roman-2e"/>
      <use x="703.7109375" xlink:href="#BitstreamVeraSans-Roman-20"/>
      <use x="735.498046875" xlink:href="#BitstreamVeraSans-Roman-75"/>
      <use x="798.876953125" xlink:href="#BitstreamVeraSans-Roman-2e"/>
      <use x="830.6640625" xlink:href="#BitstreamVeraSans-Roman-5d"/>
     </g>
    </g>
   </g>
   <g id="legend_1">
    <g id="patch_7">
     <path d="
M412.647 116.048
L511.4 116.048
L511.4 50.2
L412.647 50.2
z
" style="stroke:#ffffff;stroke-linejoin:miter;"/>
    </g>
    <g id="line2d_34">
     <path d="
M422.447 61.5378
L442.048 61.5378" style="fill:none;stroke:#8dd3c7;stroke-linecap:square;stroke-width:2.0;"/>
    </g>
    <g id="line2d_35"/>
    <g id="text_18">
     <!-- I+ -->
     <defs>
      <path d="
M46 62.7031
L46 35.5
L73.1875 35.5
L73.1875 27.2031
L46 27.2031
L46 0
L37.7969 0
L37.7969 27.2031
L10.5938 27.2031
L10.5938 35.5
L37.7969 35.5
L37.7969 62.7031
z
" id="BitstreamVeraSans-Roman-2b"/>
     </defs>
     <g style="fill:#ffffff;" transform="translate(457.4475 66.4378125)scale(0.14 -0.14)">
      <use xlink:href="#BitstreamVeraSans-Roman-49"/>
      <use x="29.4921875" xlink:href="#BitstreamVeraSans-Roman-2b"/>
     </g>
    </g>
    <g id="line2d_36">
     <path d="
M422.447 82.0872
L442.048 82.0872" style="fill:none;stroke:#feffb3;stroke-linecap:square;stroke-width:2.0;"/>
    </g>
    <g id="line2d_37"/>
    <g id="text_19">
     <!-- I2+ -->
     <g style="fill:#ffffff;" transform="translate(457.4475 86.9871875)scale(0.14 -0.14)">
      <use xlink:href="#BitstreamVeraSans-Roman-49"/>
      <use x="29.4921875" xlink:href="#BitstreamVeraSans-Roman-32"/>
      <use x="93.115234375" xlink:href="#BitstreamVeraSans-Roman-2b"/>
     </g>
    </g>
    <g id="line2d_38">
     <path d="
M422.447 102.637
L442.048 102.637" style="fill:none;stroke:#bfbbd9;stroke-linecap:square;stroke-width:2.0;"/>
    </g>
    <g id="line2d_39"/>
    <g id="text_20">
     <!-- I3+ * 5 -->
     <defs>
      <path d="
M47.0156 60.8906
L29.5 51.4219
L47.0156 41.8906
L44.1875 37.1094
L27.7812 47.0156
L27.7812 28.6094
L22.2188 28.6094
L22.2188 47.0156
L5.8125 37.1094
L2.98438 41.8906
L20.5156 51.4219
L2.98438 60.8906
L5.8125 65.7188
L22.2188 55.8125
L22.2188 74.2188
L27.7812 74.2188
L27.7812 55.8125
L44.1875 65.7188
z
" id="BitstreamVeraSans-Roman-2a"/>
     </defs>
     <g style="fill:#ffffff;" transform="translate(457.4475 107.5365625)scale(0.14 -0.14)">
      <use xlink:href="#BitstreamVeraSans-Roman-49"/>
      <use x="29.4921875" xlink:href="#BitstreamVeraSans-Roman-33"/>
      <use x="93.115234375" xlink:href="#BitstreamVeraSans-Roman-2b"/>
      <use x="176.904296875" xlink:href="#BitstreamVeraSans-Roman-20"/>
      <use x="208.69140625" xlink:href="#BitstreamVeraSans-Roman-2a"/>
      <use x="258.69140625" xlink:href="#BitstreamVeraSans-Roman-20"/>
      <use x="290.478515625" xlink:href="#BitstreamVeraSans-Roman-35"/>
     </g>
    </g>
   </g>
  </g>
 </g>
 <defs>
  <clipPath id="p7ff5b81e1d">
   <rect height="345.6" width="446.4" x="72.0" y="43.2"/>
  </clipPath>
 </defs>
</svg>
